
<svg width="55" height="21" viewBox="0 0 55 21" fill="none" xmlns="http://www.w3.org/2000/svg">
<g clip-path="url(#clip0_10318_109147)">
<path d="M7.18194 4.69071C7.98962 4.16631 8.93675 3.89785 9.89947 3.92045C10.4447 3.91554 10.9872 3.99837 11.5061 4.16576C11.9818 4.31914 12.4255 4.55822 12.8153 4.8712C13.1939 5.17964 13.5101 5.55756 13.747 5.98465C13.9808 6.41428 14.1378 6.88141 14.2109 7.36502C14.2158 7.3951 14.2313 7.42242 14.2546 7.44202C14.278 7.46162 14.3076 7.47218 14.338 7.47179H18.3838C18.402 7.47195 18.42 7.4682 18.4366 7.4608C18.4532 7.45341 18.468 7.44254 18.4801 7.42892C18.4921 7.41531 18.5011 7.39927 18.5064 7.38189C18.5117 7.36451 18.5133 7.34618 18.5109 7.32816C18.3874 6.29447 18.076 5.29207 17.5919 4.3704C17.1214 3.48928 16.4792 2.71134 15.7031 2.08249C14.9128 1.44838 14.0128 0.964581 13.0479 0.655088C12 0.320461 10.9054 0.154844 9.80541 0.164458C8.04118 0.164458 6.45193 0.568233 5.03766 1.37578C3.6234 2.18333 2.50444 3.35609 1.68079 4.89408C0.858837 6.43122 0.447013 8.29544 0.445318 10.4867C0.443623 12.6781 0.850786 14.5389 1.66681 16.0693C2.48113 17.6055 3.59331 18.7796 5.00334 19.5914C6.41337 20.4031 8.01279 20.8086 9.8016 20.8078C10.9837 20.826 12.1592 20.6283 13.2703 20.2243C14.245 19.8648 15.1436 19.3254 15.9192 18.6343C16.6453 17.985 17.2482 17.2099 17.6987 16.3463C18.1098 15.5577 18.384 14.705 18.5096 13.8246C18.512 13.8065 18.5105 13.7882 18.5052 13.7708C18.4998 13.7534 18.4909 13.7374 18.4788 13.7238C18.4668 13.7102 18.4519 13.6993 18.4353 13.6919C18.4187 13.6845 18.4007 13.6808 18.3825 13.6809L14.3304 13.6631C14.3007 13.6625 14.2717 13.6724 14.2484 13.691C14.2252 13.7095 14.2092 13.7357 14.2033 13.7648C14.1115 14.2339 13.9395 14.6837 13.6949 15.0943C13.4507 15.5066 13.1296 15.8682 12.7492 16.1595C12.3591 16.4558 11.9192 16.6801 11.4502 16.8217C10.9361 16.9756 10.4018 17.0515 9.86515 17.0467C8.9184 17.0658 7.98683 16.8068 7.18576 16.3019C6.41295 15.8044 5.81301 15.0685 5.38593 14.094C4.95886 13.1195 4.74447 11.9163 4.74278 10.4842C4.74278 9.09112 4.95462 7.9048 5.37831 6.92523C5.802 5.94567 6.40321 5.20083 7.18194 4.69071Z" fill="#13141F"/>
<path d="M36.4954 2.72553C36.5117 2.70302 36.5202 2.67579 36.5196 2.648V0.302887C36.5196 0.269177 36.5062 0.236847 36.4823 0.21301C36.4585 0.189173 36.4262 0.175781 36.3925 0.175781H33.6826L31.0464 3.86186C31.0426 3.87222 31.0375 3.88205 31.0311 3.89109L21.2351 17.6313C21.1841 17.7034 21.1566 17.7895 21.1562 17.8779V20.1302C21.1562 20.1639 21.1696 20.1962 21.1935 20.2201C21.2173 20.2439 21.2496 20.2573 21.2834 20.2573H23.9526L36.0277 3.38267L36.4954 2.72553Z" fill="#13141F"/>
<path d="M28.2943 16.7617L25.7891 20.2648H29.6747L32.1787 16.7617H28.2943Z" fill="#13141F"/>
<path d="M36.396 20.2648C36.4297 20.2648 36.462 20.2514 36.4858 20.2275C36.5097 20.2037 36.5231 20.1714 36.5231 20.1377V16.8952C36.5239 16.878 36.5213 16.8607 36.5153 16.8446C36.5093 16.8284 36.5 16.8137 36.4882 16.8012C36.4763 16.7887 36.462 16.7787 36.4461 16.772C36.4303 16.7652 36.4132 16.7617 36.396 16.7617H34.6368L32.1328 20.2648H36.396Z" fill="#13141F"/>
<path d="M21.2664 0.170418C21.2492 0.169556 21.232 0.172206 21.2158 0.178206C21.1997 0.184207 21.1849 0.193432 21.1724 0.205322C21.1599 0.217212 21.15 0.231518 21.1432 0.247368C21.1364 0.263219 21.133 0.280284 21.133 0.297524V3.53365C21.1321 3.55141 21.1349 3.56917 21.1413 3.58578C21.1477 3.60239 21.1575 3.61747 21.17 3.63005C21.1826 3.64263 21.1977 3.65243 21.2143 3.65881C21.2309 3.66519 21.2487 3.66802 21.2664 3.66711H29.3275L31.834 0.164062L21.2664 0.170418Z" fill="#13141F"/>
<path d="M50.5897 12.4321C50.6495 12.4067 50.727 12.3978 50.7867 12.3698C51.8337 11.8862 52.7116 11.0999 53.3073 10.1124C53.8801 9.15401 54.1669 8.01005 54.1678 6.68052C54.1777 6.0108 54.1112 5.34214 53.9695 4.6875L47.1172 14.3145L49.0594 17.9498L51.6269 14.3399L50.5897 12.4321Z" fill="#13141F"/>
<path d="M48.2954 3.99864C48.8008 4.20645 49.2247 4.57323 49.503 5.04346C49.6954 5.38677 49.8181 5.76474 49.8639 6.15564L52.6603 2.22679C52.1743 1.712 51.6 1.2884 50.9647 0.97606C50.6507 0.819904 50.3252 0.688171 49.991 0.582031L47.7031 3.79655C47.9061 3.84646 48.1043 3.91408 48.2954 3.99864Z" fill="#13141F"/>
<path d="M43.2534 20.2596C43.2911 20.2596 43.3273 20.2446 43.354 20.2179C43.3807 20.1912 43.3957 20.155 43.3957 20.1173V16.8125L40.9375 20.266L43.2534 20.2596Z" fill="#13141F"/>
<path d="M52.9644 16.7812L50.4922 20.2576H54.6244C54.6493 20.2583 54.6739 20.2524 54.6958 20.2404C54.7177 20.2285 54.736 20.211 54.7489 20.1897C54.7618 20.1684 54.7689 20.144 54.7693 20.1191C54.7698 20.0942 54.7636 20.0696 54.7515 20.0479L52.9644 16.7812Z" fill="#13141F"/>
<path d="M39.283 0.164062C39.2452 0.164062 39.209 0.17906 39.1823 0.205758C39.1556 0.232455 39.1406 0.268665 39.1406 0.306421V4.33696L42.1162 0.164062H39.283Z" fill="#13141F"/>
<path d="M43.3885 3.63787H45.0409L47.5106 0.17423C47.3644 0.17423 47.2182 0.164062 47.067 0.164062H44.5744L39.1406 7.79043V11.9328L43.3885 5.969V3.63787Z" fill="#13141F"/>
<path d="M43.3872 13.1412H44.8858L47.3746 9.64453C47.0101 9.70172 46.6415 9.72935 46.2725 9.72715H43.4762L39.1406 15.8143V19.1114L43.3885 13.145L43.3872 13.1412Z" fill="#13141F"/>
</g>
<defs>
<clipPath id="clip0_10318_109147">
<rect width="55" height="20.9524" fill="white"/>
</clipPath>
</defs>
</svg>
