<?xml version="1.0" encoding="iso-8859-1"?>
<!-- Uploaded to: SVG Repo, www.svgrepo.com, Generator: SVG Repo Mixer Tools -->
<!DOCTYPE svg PUBLIC "-//W3C//DTD SVG 1.1//EN" "http://www.w3.org/Graphics/SVG/1.1/DTD/svg11.dtd">
<svg version="1.1" id="Capa_1" xmlns="http://www.w3.org/2000/svg" xmlns:xlink="http://www.w3.org/1999/xlink" 
	 width="800px" height="800px" viewBox="0 0 341.903 341.903"
	 xml:space="preserve">
<g>
	<g>
		<g>
			<path style="fill:#030303;" d="M312.358,341.903H29.551c-5.792,0-11.241-2.551-14.964-6.987
				c-3.723-4.414-5.289-10.225-4.283-15.942l35.714-202.835c1.636-9.357,9.732-16.147,19.241-16.147h90.442v-3.777H49.547
				c-10.773,0-19.539-8.771-19.539-19.544V19.533C30.008,8.766,38.774,0,49.547,0c10.772,0,19.538,8.766,19.538,19.533v37.602
				h212.31V19.533C281.395,8.766,290.161,0,300.939,0c10.772,0,19.538,8.766,19.538,19.533V76.67
				c0,10.779-8.766,19.544-19.538,19.544H194.778v3.777h80.436c9.44,0,17.525,6.733,19.224,16.019l37.139,202.821
				c1.047,5.712-0.486,11.55-4.203,16.027C323.64,339.342,318.168,341.903,312.358,341.903z M65.26,111.702
				c-3.808,0-7.05,2.716-7.708,6.464L21.843,321.01c-0.406,2.281,0.218,4.597,1.71,6.369c1.504,1.796,3.688,2.813,6.004,2.813
				h282.807c2.322,0,4.518-1.034,6.016-2.824c1.487-1.796,2.104-4.14,1.688-6.438l-37.139-202.812
				c-0.681-3.717-3.923-6.416-7.708-6.416h-92.151V84.504h117.871c4.312,0,7.828-3.52,7.828-7.834V19.533
				c0-4.314-3.517-7.822-7.828-7.822c-4.317,0-7.834,3.508-7.834,7.822v49.312H57.375V19.533c0-4.314-3.511-7.822-7.828-7.822
				c-4.317,0-7.828,3.508-7.828,7.822V76.67c0,4.32,3.511,7.834,7.828,7.834h117.865v27.198H65.26z"/>
		</g>
		<g>
			<path style="fill:#030303;" d="M170.958,265.248c-27.578,0-50.016-22.438-50.016-50.021c0-21.528,13.866-40.559,34.502-47.346
				l7.685-2.53v49.876c0,4.311,3.511,7.822,7.828,7.822c4.311,0,7.828-3.512,7.828-7.822v-49.876l7.68,2.53
				c20.636,6.787,34.508,25.817,34.508,47.346C220.973,242.811,198.535,265.248,170.958,265.248z M151.419,182.49
				c-11.482,6.787-18.767,19.115-18.767,32.736c0,21.122,17.183,38.311,38.305,38.311c21.117,0,38.305-17.188,38.305-38.311
				c0-13.621-7.285-25.949-18.767-32.736v32.736c0,10.772-8.766,19.532-19.539,19.532s-19.539-8.76-19.539-19.532V182.49z"/>
		</g>
	</g>
</g>
</svg>